<svg xmlns="http://www.w3.org/2000/svg" width="188" height="61.794" viewBox="0 0 188 61.794">
  <g id="Group_304" data-name="Group 304" transform="translate(-654.65 -439.634)">
    <g id="Group_180" data-name="Group 180" transform="translate(654.65 439.634)">
      <g id="Group_179" data-name="Group 179" transform="translate(0 0)">
        <g id="Group_175" data-name="Group 175">
          <g id="Group_171" data-name="Group 171">
            <path id="Path_715" data-name="Path 715" d="M662.289,472.419l27.831-.054c-.008-6.2-2.714-13.332-7.322-21.113l-1.9,2.724a42.161,42.161,0,0,0-7.952-14.342,57.329,57.329,0,0,0-18.3,32.429l4.615.039c2.172-9.807,5.989-17.565,11.588-23.114-5.087,8.163-8.095,16-8.563,23.43" transform="translate(-654.65 -439.634)" fill="#fff"/>
            <path id="Path_716" data-name="Path 716" d="M660.668,554.151l-5.039-.3c.532,10.144,4.806,16.333,12.446,18.967-5.7-3.943-8.424-9.987-7.407-18.67m30.17,3.106a7.355,7.355,0,0,1-1.14,5.586c3.188-.063,5.3-.674,5.723-2.715C695.749,557.727,694.065,556.893,690.838,557.257Zm-2.584,20.075-2.006,3.154c-15.767-5.137-22.664-14.362-23.512-26.381l27.526.122c11.409-1.519,11.262,12.834-1.433,11.2-3.307,4.547-6.617,6.847-9.922,7.949Z" transform="translate(-655.328 -518.692)" fill="#fff" fill-rule="evenodd"/>
          </g>
          <g id="Group_174" data-name="Group 174" transform="translate(50.257 9.406)">
            <g id="Group_172" data-name="Group 172">
              <path id="Path_717" data-name="Path 717" d="M835.649,508.765a4.9,4.9,0,0,1-.568,1.942,4.324,4.324,0,0,1-.286.453,5.511,5.511,0,0,1-2.752,2.113c-.076.028-.148.062-.219.091v-.02a9.927,9.927,0,0,1-5.986-.247,16.071,16.071,0,0,1-2.59-1.121c-.272-.153-3.377-1.775-3.224-2.127l3.448-3.291c4.616,11.051,7.979,5.155,8.351-.625V480.387a2.246,2.246,0,0,0-1.083-1.842l-4.982.287c-.473.818-.909,1.835-1.346,2.639-.9,1.657-1.778,1.111-1.778,1.111L817.9,481.7a4.306,4.306,0,0,0,3.454-4.866l.464,0,.014-.057h13.77l.052-.014v1.508l-.005,1.783h0v20.585h.01c0,1.755-.005,3.511,0,5.266A25.945,25.945,0,0,1,835.649,508.765Zm-4.852-7.973-.019.052-.024-.052Z" transform="translate(-817.904 -474.735)" fill="#fff"/>
              <path id="Path_718" data-name="Path 718" d="M910.862,520.529c0,7.361-4.894,13.325-10.927,13.325S889,527.89,889,520.529s4.9-13.319,10.932-13.319S910.862,513.174,910.862,520.529Zm-4.653-1.906c-1.17-6.74-4.89-11.35-8.318-10.295s-5.917,7.548-4.753,14.287,5.555,11.169,8.984,10.122S907.372,525.362,906.208,518.622Z" transform="translate(-867.115 -495.813)" fill="#fff"/>
              <path id="Path_719" data-name="Path 719" d="M990.065,507.726h-9.284a4.32,4.32,0,0,0,2.728-3.658.018.018,0,0,1,0-.006v-14.2c-.024-2.156-2.356-9.893-10.45-2.909l-.917.859a1.782,1.782,0,0,0-.455,1.279v14.976a.012.012,0,0,1,0,.006,4.319,4.319,0,0,0,2.728,3.657h-9.284a4.319,4.319,0,0,0,2.728-3.657.009.009,0,0,1,0-.006V485.147h-.012v-9.48a2.605,2.605,0,0,0-1.781-2.239l-1.09-.366h0l2.874-1.23,3.825-1.636.011,0-.01,5.132h0v6.887h.011v4.567l.213-.217q1.647-1.116,3.287-2.233c1.76-1.2,3.539-2.466,5.747-2.48a7.414,7.414,0,0,1,2.575.478c.187.071.372.147.554.233a6.624,6.624,0,0,1,1.707,1.112,3.79,3.79,0,0,1,1.564,3.281v17.114a.012.012,0,0,1,0,.006A4.32,4.32,0,0,0,990.065,507.726Z" transform="translate(-919.702 -470.189)" fill="#fff"/>
              <path id="Path_720" data-name="Path 720" d="M1073.686,532.493h-4.207a2,2,0,0,1-1.975-1.684l-.3-1.891-.237.182s-2.966,2.976-5.668,3.556a7.388,7.388,0,0,1-7.212-1.941c-2.3-2.106-2.754-6.676-1.9-8.684l14.005-6.681a1.47,1.47,0,0,0,.854-1.22V512.1a1.688,1.688,0,0,0-.034-.352v-.02a8.032,8.032,0,0,0-.82-3.109c-.687-1.274-1.955-2.294-4.283-1.541,0,0-2.547,1.141-5.184,5.09l-3.491-3.3s4.784-2.7,7.125-2.876,4.918-.348,6.583.625a16.726,16.726,0,0,1,1.729,1.02,5.058,5.058,0,0,1,2.2,4.112v16.2l.425,2.146A4.152,4.152,0,0,0,1073.686,532.493Zm-6.645-5.619V516.133l-.445.014-10.149,6.492-.435.686s-.668,5.211,4.138,6.138C1064.225,530.249,1066.247,528.2,1067.04,526.874Z" transform="translate(-979.785 -494.875)" fill="#fff"/>
              <path id="Path_721" data-name="Path 721" d="M1146.286,508.573l-3.279,3.524s-.379.959-2.09.162-3.959-2.334-4.851-1.483a2.365,2.365,0,0,0-.892,1.483v17.095a4.322,4.322,0,0,0,2.728,3.654h-2.731v0h-3.823v-.017c0,.011,0,.019,0,.019h-2.73a4.319,4.319,0,0,0,2.728-3.657c0-.006,0-.011,0-.018V512.614a2.6,2.6,0,0,0-1.781-2.249l-1.09-.366h0l2.877-1.231,3.825-1.636.009,0-.007,3.56,5.44-3.975A4.306,4.306,0,0,0,1146.286,508.573Z" transform="translate(-1032.867 -495.469)" fill="#fff"/>
              <path id="Path_722" data-name="Path 722" d="M1190.732,486.194l3.155-2.76a4.751,4.751,0,0,0,5.51.924C1196.589,486.071,1193.743,487.282,1190.732,486.194Zm9.446,30.7h-2.73v0h-3.823v-.017c0,.011,0,.019,0,.019h-2.73a4.319,4.319,0,0,0,2.728-3.657c0-.006,0-.011,0-.018V496.5a2.6,2.6,0,0,0-1.781-2.249l-1.09-.366h0l2.875-1.23,3.825-1.636.01-.005-.01,5.132v17.1A4.319,4.319,0,0,0,1200.178,516.893Zm.167-33.127a4.628,4.628,0,0,1-.947.593Q1199.872,484.07,1200.345,483.766Z" transform="translate(-1075.959 -479.357)" fill="#fff"/>
            </g>
            <g id="Group_173" data-name="Group 173">
              <path id="Path_723" data-name="Path 723" d="M835.649,508.765a4.9,4.9,0,0,1-.568,1.942,4.324,4.324,0,0,1-.286.453,5.511,5.511,0,0,1-2.752,2.113c-.076.028-.148.062-.219.091v-.02a9.927,9.927,0,0,1-5.986-.247,16.071,16.071,0,0,1-2.59-1.121c-.272-.153-3.377-1.775-3.224-2.127l3.448-3.291c4.616,11.051,7.979,5.155,8.351-.625V480.387a2.246,2.246,0,0,0-1.083-1.842l-4.982.287c-.473.818-.909,1.835-1.346,2.639-.9,1.657-1.778,1.111-1.778,1.111L817.9,481.7a4.306,4.306,0,0,0,3.454-4.866l.464,0,.014-.057h13.77l.052-.014v1.508l-.005,1.783h0v20.585h.01c0,1.755-.005,3.511,0,5.266A25.945,25.945,0,0,1,835.649,508.765Zm-4.852-7.973-.019.052-.024-.052Z" transform="translate(-817.904 -474.735)" fill="#fff"/>
              <path id="Path_724" data-name="Path 724" d="M910.862,520.529c0,7.361-4.894,13.325-10.927,13.325S889,527.89,889,520.529s4.9-13.319,10.932-13.319S910.862,513.174,910.862,520.529Zm-4.653-1.906c-1.17-6.74-4.89-11.35-8.318-10.295s-5.917,7.548-4.753,14.287,5.555,11.169,8.984,10.122S907.372,525.362,906.208,518.622Z" transform="translate(-867.115 -495.813)" fill="#fff"/>
              <path id="Path_725" data-name="Path 725" d="M990.065,507.726h-9.284a4.32,4.32,0,0,0,2.728-3.658.018.018,0,0,1,0-.006v-14.2c-.024-2.156-2.356-9.893-10.45-2.909l-.917.859a1.782,1.782,0,0,0-.455,1.279v14.976a.012.012,0,0,1,0,.006,4.319,4.319,0,0,0,2.728,3.657h-9.284a4.319,4.319,0,0,0,2.728-3.657.009.009,0,0,1,0-.006V485.147h-.012v-9.48a2.605,2.605,0,0,0-1.781-2.239l-1.09-.366h0l2.874-1.23,3.825-1.636.011,0-.01,5.132h0v6.887h.011v4.567l.213-.217q1.647-1.116,3.287-2.233c1.76-1.2,3.539-2.466,5.747-2.48a7.414,7.414,0,0,1,2.575.478c.187.071.372.147.554.233a6.624,6.624,0,0,1,1.707,1.112,3.79,3.79,0,0,1,1.564,3.281v17.114a.012.012,0,0,1,0,.006A4.32,4.32,0,0,0,990.065,507.726Z" transform="translate(-919.702 -470.189)" fill="#fff"/>
              <path id="Path_726" data-name="Path 726" d="M1073.686,532.493h-4.207a2,2,0,0,1-1.975-1.684l-.3-1.891-.237.182s-2.966,2.976-5.668,3.556a7.388,7.388,0,0,1-7.212-1.941c-2.3-2.106-2.754-6.676-1.9-8.684l14.005-6.681a1.47,1.47,0,0,0,.854-1.22V512.1a1.688,1.688,0,0,0-.034-.352v-.02a8.032,8.032,0,0,0-.82-3.109c-.687-1.274-1.955-2.294-4.283-1.541,0,0-2.547,1.141-5.184,5.09l-3.491-3.3s4.784-2.7,7.125-2.876,4.918-.348,6.583.625a16.726,16.726,0,0,1,1.729,1.02,5.058,5.058,0,0,1,2.2,4.112v16.2l.425,2.146A4.152,4.152,0,0,0,1073.686,532.493Zm-6.645-5.619V516.133l-.445.014-10.149,6.492-.435.686s-.668,5.211,4.138,6.138C1064.225,530.249,1066.247,528.2,1067.04,526.874Z" transform="translate(-979.785 -494.875)" fill="#fff"/>
              <path id="Path_727" data-name="Path 727" d="M1146.286,508.573l-3.279,3.524s-.379.959-2.09.162-3.959-2.334-4.851-1.483a2.365,2.365,0,0,0-.892,1.483v17.095a4.322,4.322,0,0,0,2.728,3.654h-2.731v0h-3.823v-.017c0,.011,0,.019,0,.019h-2.73a4.319,4.319,0,0,0,2.728-3.657c0-.006,0-.011,0-.018V512.614a2.6,2.6,0,0,0-1.781-2.249l-1.09-.366h0l2.877-1.231,3.825-1.636.009,0-.007,3.56,5.44-3.975A4.306,4.306,0,0,0,1146.286,508.573Z" transform="translate(-1032.867 -495.469)" fill="#fff"/>
              <path id="Path_728" data-name="Path 728" d="M1190.732,486.194l3.155-2.76a4.751,4.751,0,0,0,5.51.924C1196.589,486.071,1193.743,487.282,1190.732,486.194Zm9.446,30.7h-2.73v0h-3.823v-.017c0,.011,0,.019,0,.019h-2.73a4.319,4.319,0,0,0,2.728-3.657c0-.006,0-.011,0-.018V496.5a2.6,2.6,0,0,0-1.781-2.249l-1.09-.366h0l2.875-1.23,3.825-1.636.01-.005-.01,5.132v17.1A4.319,4.319,0,0,0,1200.178,516.893Zm.167-33.127a4.628,4.628,0,0,1-.947.593Q1199.872,484.07,1200.345,483.766Z" transform="translate(-1075.959 -479.357)" fill="#fff"/>
            </g>
          </g>
        </g>
        <g id="Group_178" data-name="Group 178" transform="translate(177.576 13.64)">
          <g id="Group_176" data-name="Group 176">
            <path id="Path_729" data-name="Path 729" d="M1233.6,488.751q-.6,0-1.155.01l-.017-.172.55-.15a.116.116,0,0,0,.09-.11c0-.172.006-.392.006-.664v-3.356h-.99l-.315.913-.193.032-.09-1.285.024-.027q.845.012,1.619.014h.959q.772,0,1.628-.014l.021.027-.228,1.258-.191.031-.224-.948h-.993v3.356c0,.271,0,.491.006.664a.115.115,0,0,0,.093.11l.539.15.011.172C1234.374,488.755,1233.989,488.751,1233.6,488.751Z" transform="translate(-1231.489 -483.942)" fill="#fff"/>
            <path id="Path_730" data-name="Path 730" d="M1250.068,483.942c.315.008.6.014.855.014.227,0,.493-.005.8-.014l.021.175-.471.135a.111.111,0,0,0-.083.113c0,.151-.007.341-.007.57v2.738c0,.27,0,.5.007.684a.111.111,0,0,0,.093.106l.447.127.014.172q-.492-.011-1.089-.01-.581,0-.973.01l-.017-.172.395-.119a.118.118,0,0,0,.086-.124q.011-.268.011-.673v-2.2c0-.119,0-.346.01-.684-.078.2-.161.4-.248.612l-1.367,3.35-.309.027-1.306-3.254c-.077-.185-.158-.392-.24-.621.005.325.007.539.007.642v2.127q0,.4.006.673a.119.119,0,0,0,.09.124l.378.119.009.172c-.27-.007-.5-.01-.7-.01s-.455,0-.773.01l-.018-.172.46-.127a.111.111,0,0,0,.093-.106c0-.187.007-.414.007-.684v-2.738c0-.23,0-.419-.007-.57a.111.111,0,0,0-.083-.113l-.461-.135-.01-.175c.381.008.666.014.856.014.26,0,.527-.005.8-.014l1.2,3.026c.053.131.1.255.141.371.046-.116.094-.24.144-.371Z" transform="translate(-1241.321 -483.942)" fill="#fff"/>
          </g>
          <g id="Group_177" data-name="Group 177">
            <path id="Path_731" data-name="Path 731" d="M1233.6,488.751q-.6,0-1.155.01l-.017-.172.55-.15a.116.116,0,0,0,.09-.11c0-.172.006-.392.006-.664v-3.356h-.99l-.315.913-.193.032-.09-1.285.024-.027q.845.012,1.619.014h.959q.772,0,1.628-.014l.021.027-.228,1.258-.191.031-.224-.948h-.993v3.356c0,.271,0,.491.006.664a.115.115,0,0,0,.093.11l.539.15.011.172C1234.374,488.755,1233.989,488.751,1233.6,488.751Z" transform="translate(-1231.489 -483.942)" fill="#fff"/>
            <path id="Path_732" data-name="Path 732" d="M1250.068,483.942c.315.008.6.014.855.014.227,0,.493-.005.8-.014l.021.175-.471.135a.111.111,0,0,0-.083.113c0,.151-.007.341-.007.57v2.738c0,.27,0,.5.007.684a.111.111,0,0,0,.093.106l.447.127.014.172q-.492-.011-1.089-.01-.581,0-.973.01l-.017-.172.395-.119a.118.118,0,0,0,.086-.124q.011-.268.011-.673v-2.2c0-.119,0-.346.01-.684-.078.2-.161.4-.248.612l-1.367,3.35-.309.027-1.306-3.254c-.077-.185-.158-.392-.24-.621.005.325.007.539.007.642v2.127q0,.4.006.673a.119.119,0,0,0,.09.124l.378.119.009.172c-.27-.007-.5-.01-.7-.01s-.455,0-.773.01l-.018-.172.46-.127a.111.111,0,0,0,.093-.106c0-.187.007-.414.007-.684v-2.738c0-.23,0-.419-.007-.57a.111.111,0,0,0-.083-.113l-.461-.135-.01-.175c.381.008.666.014.856.014.26,0,.527-.005.8-.014l1.2,3.026c.053.131.1.255.141.371.046-.116.094-.24.144-.371Z" transform="translate(-1241.321 -483.942)" fill="#fff"/>
          </g>
        </g>
      </g>
    </g>
  </g>
</svg>
